<?xml version="1.0" encoding="UTF-8" standalone="no"?>
<!-- Created with Inkscape (http://www.inkscape.org/) -->

<svg
   width="154.63461mm"
   height="42.56517mm"
   viewBox="0 0 154.63461 42.56517"
   version="1.1"
   id="svg5"
   xml:space="preserve"
   sodipodi:docname="eflake.svg"
   inkscape:version="1.2.2 (732a01da63, 2022-12-09)"
   xmlns:inkscape="http://www.inkscape.org/namespaces/inkscape"
   xmlns:sodipodi="http://sodipodi.sourceforge.net/DTD/sodipodi-0.dtd"
   xmlns="http://www.w3.org/2000/svg"
   xmlns:svg="http://www.w3.org/2000/svg"><sodipodi:namedview
     id="namedview7"
     pagecolor="#ffffff"
     bordercolor="#666666"
     borderopacity="1.0"
     inkscape:showpageshadow="2"
     inkscape:pageopacity="0.0"
     inkscape:pagecheckerboard="0"
     inkscape:deskcolor="#d1d1d1"
     inkscape:document-units="mm"
     showgrid="false"
     inkscape:zoom="1.4639497"
     inkscape:cx="378.08676"
     inkscape:cy="81.286947"
     inkscape:window-width="1920"
     inkscape:window-height="1017"
     inkscape:window-x="-8"
     inkscape:window-y="-8"
     inkscape:window-maximized="1"
     inkscape:current-layer="g4268"
     inkscape:lockguides="true" /><defs
     id="defs2" /><g
     inkscape:label="Layer 1"
     inkscape:groupmode="layer"
     id="layer1"
     transform="translate(-25.901097,-91.744031)"><g
       id="g4268"
       transform="matrix(2.7880735,0,0,2.7880735,-184.56208,-202.09989)"><text
         xml:space="preserve"
         style="font-style:normal;font-variant:normal;font-weight:normal;font-stretch:normal;font-size:10.5833px;line-height:1.25;font-family:Righteous;-inkscape-font-specification:'Righteous, Normal';font-variant-ligatures:normal;font-variant-caps:normal;font-variant-numeric:normal;font-variant-east-asian:normal;letter-spacing:0px;word-spacing:0px;fill:#5f8dd3;fill-opacity:1;stroke:none;stroke-width:0.264583;stroke-opacity:0.866667"
         x="90.650093"
         y="116.69578"
         id="text741"><tspan
           sodipodi:role="line"
           id="tspan739"
           x="90.650093"
           y="116.69578"
           style="font-style:normal;font-variant:normal;font-weight:normal;font-stretch:normal;font-size:10.5833px;font-family:Righteous;-inkscape-font-specification:'Righteous, Normal';font-variant-ligatures:normal;font-variant-caps:normal;font-variant-numeric:normal;font-variant-east-asian:normal;fill:#5f8dd3;fill-opacity:1;stroke:none;stroke-width:0.264583;stroke-opacity:0.866667">e flake</tspan></text><g
         id="g2322"
         transform="matrix(0.02132729,0,0,0.02132729,84.17545,112.40131)"
         style="fill:#5f8dd3;fill-opacity:1;stroke-width:1.2706"><g
           id="g2268"
           style="fill:#5f8dd3;fill-opacity:1;stroke-width:1.2706">
	
<g
   id="g3866"
   transform="translate(-211.04502,-168.51914)"
   style="fill:#5f8dd3;fill-opacity:1;stroke-width:1.2706"><path
     style="fill:#5f8dd3;fill-opacity:1;stroke-width:1.2706"
     d="m 391.9,188.449 h -55.923 l 31.582,-54.697 -12.99,-7.5 -35.912,62.197 h -86.755 c -1.614,-7.839 -5.706,-14.784 -11.418,-19.977 l 43.318,-75.034 h 71.815 v -15 h -63.156 l 27.965,-48.439 -12.99,-7.5 -27.965,48.439 -31.581,-54.704 -12.99,7.5 35.911,62.205 -43.236,74.892 c -3.781,-1.301 -7.831,-2.017 -12.048,-2.017 -3.95,0 -7.755,0.626 -11.329,1.773 l -43.1,-74.653 35.907,-62.194 -12.99,-7.5 -31.577,54.693 -27.963,-48.434 -12.99,7.5 27.963,48.435 -63.167,-0.002 -10e-4,15 71.828,0.003 43.035,74.541 c -6.008,5.243 -10.325,12.378 -11.992,20.474 H 73.249 l -35.909,-62.197 -12.99,7.5 31.58,54.697 H 0 v 15 h 55.925 l -31.583,54.699 12.99,7.5 35.913,-62.199 h 85.906 c 1.667,8.096 5.983,15.231 11.991,20.475 l -43.034,74.538 H 56.285 v 15 h 63.165 l -27.964,48.437 12.99,7.5 27.96,-48.43 31.577,54.696 12.99,-7.5 -35.907,-62.197 43.102,-74.657 c 3.574,1.148 7.379,1.774 11.33,1.774 4.217,0 8.268,-0.716 12.049,-2.017 l 43.233,74.887 -35.913,62.204 12.99,7.5 31.583,-54.703 27.966,48.442 12.99,-7.5 -27.961,-48.433 63.155,0.002 10e-4,-15 -71.816,-0.003 -43.32,-75.038 c 5.712,-5.193 9.804,-12.139 11.418,-19.978 h 86.749 l 35.911,62.199 12.99,-7.5 -31.581,-54.699 H 391.9 Z m -218.51,7.501 c 0,-12.206 9.931,-22.136 22.137,-22.136 12.206,0 22.136,9.93 22.136,22.136 0,12.206 -9.93,22.137 -22.136,22.137 -12.206,0 -22.137,-9.931 -22.137,-22.137 z"
     id="path3813" /><g
     id="g3815"
     style="fill:#5f8dd3;fill-opacity:1;stroke-width:1.2706">
</g><g
     id="g3817"
     style="fill:#5f8dd3;fill-opacity:1;stroke-width:1.2706">
</g><g
     id="g3819"
     style="fill:#5f8dd3;fill-opacity:1;stroke-width:1.2706">
</g><g
     id="g3821"
     style="fill:#5f8dd3;fill-opacity:1;stroke-width:1.2706">
</g><g
     id="g3823"
     style="fill:#5f8dd3;fill-opacity:1;stroke-width:1.2706">
</g><g
     id="g3825"
     style="fill:#5f8dd3;fill-opacity:1;stroke-width:1.2706">
</g><g
     id="g3827"
     style="fill:#5f8dd3;fill-opacity:1;stroke-width:1.2706">
</g><g
     id="g3829"
     style="fill:#5f8dd3;fill-opacity:1;stroke-width:1.2706">
</g><g
     id="g3831"
     style="fill:#5f8dd3;fill-opacity:1;stroke-width:1.2706">
</g><g
     id="g3833"
     style="fill:#5f8dd3;fill-opacity:1;stroke-width:1.2706">
</g><g
     id="g3835"
     style="fill:#5f8dd3;fill-opacity:1;stroke-width:1.2706">
</g><g
     id="g3837"
     style="fill:#5f8dd3;fill-opacity:1;stroke-width:1.2706">
</g><g
     id="g3839"
     style="fill:#5f8dd3;fill-opacity:1;stroke-width:1.2706">
</g><g
     id="g3841"
     style="fill:#5f8dd3;fill-opacity:1;stroke-width:1.2706">
</g><g
     id="g3843"
     style="fill:#5f8dd3;fill-opacity:1;stroke-width:1.2706">
</g></g></g><g
           id="g2270"
           style="fill:#5f8dd3;fill-opacity:1;stroke-width:1.2706">
</g><g
           id="g2272"
           style="fill:#5f8dd3;fill-opacity:1;stroke-width:1.2706">
</g><g
           id="g2274"
           style="fill:#5f8dd3;fill-opacity:1;stroke-width:1.2706">
</g><g
           id="g2276"
           style="fill:#5f8dd3;fill-opacity:1;stroke-width:1.2706">
</g><g
           id="g2278"
           style="fill:#5f8dd3;fill-opacity:1;stroke-width:1.2706">
</g><g
           id="g2280"
           style="fill:#5f8dd3;fill-opacity:1;stroke-width:1.2706">
</g><g
           id="g2282"
           style="fill:#5f8dd3;fill-opacity:1;stroke-width:1.2706">
</g><g
           id="g2284"
           style="fill:#5f8dd3;fill-opacity:1;stroke-width:1.2706">
</g><g
           id="g2286"
           style="fill:#5f8dd3;fill-opacity:1;stroke-width:1.2706">
</g><g
           id="g2288"
           style="fill:#5f8dd3;fill-opacity:1;stroke-width:1.2706">
</g><g
           id="g2290"
           style="fill:#5f8dd3;fill-opacity:1;stroke-width:1.2706">
</g><g
           id="g2292"
           style="fill:#5f8dd3;fill-opacity:1;stroke-width:1.2706">
</g><g
           id="g2294"
           style="fill:#5f8dd3;fill-opacity:1;stroke-width:1.2706">
</g><g
           id="g2296"
           style="fill:#5f8dd3;fill-opacity:1;stroke-width:1.2706">
</g><g
           id="g2298"
           style="fill:#5f8dd3;fill-opacity:1;stroke-width:1.2706">
</g></g><rect
         style="opacity:0.946667;fill:#5f8dd3;stroke-width:0.394537"
         id="rect643"
         width="1.3235509"
         height="0.75563741"
         x="96.941101"
         y="113.17723"
         rx="0.024620986"
         ry="0.024782715" /></g></g></svg>
